<svg width="10" height="10" viewBox="0 0 10 10" fill="none" xmlns="http://www.w3.org/2000/svg">
<path d="M8.37492 3.84168C7.62075 3.84168 7.31242 3.30835 7.68742 2.65418C7.90409 2.27501 7.77492 1.79168 7.39575 1.57501L6.67492 1.16251C6.34575 0.966681 5.92075 1.08335 5.72492 1.41251L5.67909 1.49168C5.30409 2.14585 4.68742 2.14585 4.30825 1.49168L4.26242 1.41251C4.07492 1.08335 3.64992 0.966681 3.32075 1.16251L2.59992 1.57501C2.22075 1.79168 2.09159 2.27918 2.30825 2.65835C2.68742 3.30835 2.37909 3.84168 1.62492 3.84168C1.19159 3.84168 0.833252 4.19585 0.833252 4.63335V5.36668C0.833252 5.80001 1.18742 6.15835 1.62492 6.15835C2.37909 6.15835 2.68742 6.69168 2.30825 7.34585C2.09159 7.72501 2.22075 8.20835 2.59992 8.42501L3.32075 8.83751C3.64992 9.03335 4.07492 8.91668 4.27075 8.58751L4.31659 8.50835C4.69159 7.85418 5.30825 7.85418 5.68742 8.50835L5.73325 8.58751C5.92909 8.91668 6.35409 9.03335 6.68325 8.83751L7.40409 8.42501C7.78325 8.20835 7.91242 7.72085 7.69575 7.34585C7.31659 6.69168 7.62492 6.15835 8.37909 6.15835C8.81242 6.15835 9.17075 5.80418 9.17075 5.36668V4.63335C9.16658 4.20001 8.81242 3.84168 8.37492 3.84168ZM4.99992 6.35418C4.25409 6.35418 3.64575 5.74585 3.64575 5.00001C3.64575 4.25418 4.25409 3.64585 4.99992 3.64585C5.74575 3.64585 6.35408 4.25418 6.35408 5.00001C6.35408 5.74585 5.74575 6.35418 4.99992 6.35418Z" fill="white"/>
</svg>
